<svg xmlns="http://www.w3.org/2000/svg" viewBox="0 0 64 64" fill="none" stroke="currentColor" stroke-width="2.2" stroke-linecap="round" stroke-linejoin="round">
  <path d="M43 45c13-3 15 6 9 11-3 3-8 2-8-1 0-2 3-3 4-1"/>
  <path d="M50 46l-2 4m7 1-4 1m0 7-1-4"/>
  <path d="M22 39c-5 4-7 10-5 16h29c2-6-1-12-6-16" fill="currentColor" opacity="0.16"/>
  <path d="M14 20 6 17l3 7-5 3 8 3-4 5 10-2m32-13 8-3-3 7 5 3-8 3 4 5-10-2" fill="#fff5f2"/>
  <path d="M17 20c1-8 8-12 15-12s14 4 15 12v9c0 10-7 16-15 16s-15-6-15-16z" fill="currentColor" opacity="0.16"/>
  <path d="M17 20c1-8 8-12 15-12s14 4 15 12v9c0 10-7 16-15 16s-15-6-15-16z"/>
  <path d="m26 10 3-6 3 5 4-5 2 7"/>
  <path d="M19 25c0-5 7-7 13-3 6-4 13-2 13 3v6c0 7-6 11-13 11s-13-4-13-11z" fill="#fff5f2"/>
  <ellipse cx="25" cy="28" rx="2" ry="2.6" fill="currentColor" stroke="none"/>
  <ellipse cx="39" cy="28" rx="2" ry="2.6" fill="currentColor" stroke="none"/>
  <path d="m30 32 2 2 2-2m-7 4c3 3 7 3 10 0"/>
  <path class="zs-mascot-blush" d="M21 33h3m16 0h3"/>
  <path d="M12 45c7-2 13-1 20 3 7-4 13-5 20-3v15c-8-2-14-1-20 2-6-3-12-4-20-2z" fill="#fff5f2"/>
  <path d="M32 48v14m-15-11 9 2m12 0 9-2m-30 5 9 2m12 0 9-2"/>
  <path d="M17 44c-5-1-7 1-6 4s5 4 7 2m29-6c5-1 7 1 6 4s-5 4-7 2" fill="currentColor" opacity="0.16"/>
  <path d="M17 44c-5-1-7 1-6 4s5 4 7 2m29-6c5-1 7 1 6 4s-5 4-7 2"/>
  <path class="zs-mascot-spark" d="m53 5 1.2 3.5L58 10l-3.8 1.4L53 15l-1.3-3.6L48 10l3.7-1.5z" fill="currentColor" stroke="none"/>
</svg>
